<svg id="Ebene_1" data-name="Ebene 1" xmlns="http://www.w3.org/2000/svg" viewBox="0 0 395.29 128.04"><defs><style>.cls-1{fill:#b61f29;}.cls-2,.cls-3{fill:#18470f;}.cls-3,.cls-4{fill-rule:evenodd;}.cls-4,.cls-5{fill:#fff;}.cls-6{fill:#1d1d1b;}</style></defs><rect class="cls-1" y="10.45" width="90.54" height="36.93"/><rect class="cls-2" y="47.38" width="90.53" height="36.94"/><rect class="cls-1" x="71.04" y="0.02" width="8.61" height="8.21"/><rect class="cls-1" x="10.52" width="8.61" height="8.21"/><rect class="cls-2" x="23.44" width="43.66" height="8.21"/><rect class="cls-1" x="71.04" y="86.66" width="8.61" height="8.21"/><rect class="cls-1" x="10.52" y="86.64" width="8.61" height="8.21"/><rect class="cls-2" x="23.44" y="86.64" width="43.66" height="8.21"/><polygon class="cls-3" points="101.97 0 395.29 0 395.29 94.87 101.97 94.87 101.97 0 101.97 0"/><path class="cls-4" d="M354.23,46.63c-16.07-7.55-32.37-13.38-49.82-16-4.75-.42-9.24-.47-13.93-.47-10.51,1.19-21.69,4-27.08,14l-.47-.23a130.67,130.67,0,0,0-19.55-19,94.28,94.28,0,0,0-13.3-7.72c-9.64-3.69-18.07-4.8-28-2.4-2.37.79-4.47,1.57-6.74,2.55-3.36,1.95-4.16,2.59-4.48,2.68.18-.28.37-.55.56-.82C199,12.19,206.23,7.18,216.3,4.45c9.8-1.85,17.55-.85,26.93,2.88,7.37,3.72,14.31,8.07,19.93,14.4a30,30,0,0,1,5.69-6.83c6.69-4.51,13.25-4.26,21.14-3.22,3.17.74,6.36,1.57,9.62,2.58a200.53,200.53,0,0,1,54.93,32.27,1.41,1.41,0,0,1-.31.1Z"/><path class="cls-5" d="M116.24,77.5q.29-3.34.42-7.24t.15-9.32q0-5.22-.15-9.27t-.42-7.36c.68.1,1.35.18,2,.23s1.36.08,2,.08,1.35,0,2-.08,1.36-.13,2-.23c-.2,2.25-.35,4.72-.44,7.43s-.15,5.77-.15,9.2,0,6,.09,8,.13,3.67.24,5.09c2,0,3.89-.12,5.71-.23s3.59-.26,5.34-.43c0,.32-.08.65-.11,1s0,.69,0,1,0,.67,0,1,.06.7.11,1.08q-3.37-.19-5.75-.26c-1.57,0-3-.07-4.28-.07s-2.42,0-3.81.07S118.24,77.37,116.24,77.5Z"/><path class="cls-5" d="M151.06,74.44a7.31,7.31,0,0,1-2.74,2.7,7.68,7.68,0,0,1-3.82,1,6.32,6.32,0,0,1-4.79-1.81,6.89,6.89,0,0,1-1.73-5,5.76,5.76,0,0,1,1.23-3.79,8.24,8.24,0,0,1,3.85-2.38l2.46-.78a20.71,20.71,0,0,0,5.18-2.09,2.53,2.53,0,0,0,0-.32c0-.12,0-.28,0-.51A4.88,4.88,0,0,0,149.5,58a4.42,4.42,0,0,0-3.34-1.3,5.14,5.14,0,0,0-3,.92,9,9,0,0,0-2.47,2.83c-.24-.76-.43-1.37-.59-1.83s-.32-.89-.47-1.28a16.66,16.66,0,0,1,4.25-2.79,10.92,10.92,0,0,1,4.38-.91q4.35,0,6.68,2a7.2,7.2,0,0,1,2.33,5.76v.24l-.14,8.46V71c0,2,.22,3.24.65,3.81a3.08,3.08,0,0,0,2.54.84h.14v1.21a13.22,13.22,0,0,1-2.55.79,12.68,12.68,0,0,1-2.53.27,4.08,4.08,0,0,1-4.35-3.48Zm-.22-9.73A10.07,10.07,0,0,0,146,66.8a5.09,5.09,0,0,0-1.49,3.89,5.35,5.35,0,0,0,.76,3.13,2.6,2.6,0,0,0,2.25,1.05A2.89,2.89,0,0,0,150,73.7a5.5,5.5,0,0,0,.86-3.34Z"/><path class="cls-5" d="M163.66,77.5c.12-2.15.22-4.18.28-6.09s.1-3.74.1-5.49c0-2,0-3.93-.1-5.87s-.16-3.86-.28-5.77c.5.06,1,.11,1.57.14s1.13,0,1.76,0,1.21,0,1.74,0,1-.08,1.5-.14v3.34a10.11,10.11,0,0,1,3.34-2.92,9,9,0,0,1,4.14-.94,8.5,8.5,0,0,1,3.24.6,6.49,6.49,0,0,1,2.48,1.77,5.61,5.61,0,0,1,1.15,2.33,22.55,22.55,0,0,1,.34,4.76c0,.32,0,1.15,0,2.5s0,2.54,0,3.57q0,2.28.09,4.29c0,1.35.13,2.65.25,3.92-.68-.08-1.32-.14-1.91-.18s-1.16-.06-1.71-.06-1.12,0-1.69.06-1.21.1-1.89.18c.11-1.38.21-3,.28-4.94s.1-4,.1-6.38c0-3.52-.28-5.8-.84-6.82a3.16,3.16,0,0,0-3-1.53,3.28,3.28,0,0,0-3.15,1.83c-.64,1.22-1,3.27-1,6.17,0,1.36,0,3,.07,5s.11,4.18.19,6.71c-.6-.08-1.19-.14-1.78-.18s-1.15-.06-1.7-.06-1.09,0-1.68.06S164.3,77.42,163.66,77.5Z"/><path class="cls-5" d="M206,77.5c0-.37,0-.78,0-1.24s0-1.14,0-2.06a7.48,7.48,0,0,1-2.79,3,8.23,8.23,0,0,1-4.14,1q-4.76,0-7.17-3t-2.41-9q0-5.84,2.65-9.17a8.78,8.78,0,0,1,7.28-3.33,7.52,7.52,0,0,1,6.39,3.18v-6q0-3-.06-5.31t-.18-4.41c.55.06,1.12.11,1.7.14s1.21,0,1.87,0,1.3,0,1.9,0,1.16-.08,1.7-.14q-.24,3.2-.33,7.29t-.1,11.12c0,3.75,0,7.14.11,10.15s.18,5.64.32,7.87c-.55-.09-1.12-.16-1.69-.21s-1.14-.08-1.69-.08-1.16,0-1.72.07S206.56,77.4,206,77.5Zm-4.52-20.8a3.85,3.85,0,0,0-3.7,2.31q-1.15,2.31-1.15,7.41,0,4.56,1.1,6.61a3.7,3.7,0,0,0,3.49,2,3.8,3.8,0,0,0,3.5-2.31,14.86,14.86,0,0,0,1.21-6.68,17.39,17.39,0,0,0-1.1-7.06A3.57,3.57,0,0,0,201.46,56.7Z"/><path class="cls-5" d="M221.25,78.61l.05-.38A4.58,4.58,0,0,1,219,76.79a3.66,3.66,0,0,1-.82-2.4,4.48,4.48,0,0,1,1.26-3A9.91,9.91,0,0,1,223.05,69v-.59A8.34,8.34,0,0,1,218.38,66a6.54,6.54,0,0,1-1.57-4.55,6.88,6.88,0,0,1,2.71-5.68,11.38,11.38,0,0,1,7.27-2.14c.28,0,1.36.06,3.23.2s3.6.2,5.19.2c.65,0,1.33,0,2.06,0s1.49-.06,2.29-.1v2.37l-4-.17-.74,0a5.16,5.16,0,0,1,1.88,2,6.32,6.32,0,0,1,.63,2.92,6.92,6.92,0,0,1-2.87,5.89c-1.92,1.42-4.6,2.12-8,2.12h-.83a2.37,2.37,0,0,0-1.54.74,2.28,2.28,0,0,0-.59,1.59q0,2.2,6.88,2.46h.26c.14,0,.34,0,.59,0q4.43.21,5.7.93a5.68,5.68,0,0,1,2.24,2.32,7.31,7.31,0,0,1,.77,3.42,8.89,8.89,0,0,1-3.69,7.34,15.23,15.23,0,0,1-9.58,2.86A14.4,14.4,0,0,1,219,89.08a5.15,5.15,0,0,1-2.72-4.59,5.35,5.35,0,0,1,1.23-3.58A8.35,8.35,0,0,1,221.25,78.61Zm2.13.29a4.44,4.44,0,0,0-1.84,1.75,5.49,5.49,0,0,0,1,6.57,6.45,6.45,0,0,0,4.48,1.5,8.57,8.57,0,0,0,5.16-1.36,4.35,4.35,0,0,0,1.87-3.74,4.05,4.05,0,0,0-1.22-3.22A6.37,6.37,0,0,0,229,79.21Zm0-17.58a8.56,8.56,0,0,0,.87,4.39,3.37,3.37,0,0,0,5.52-.07,10.21,10.21,0,0,0,.85-4.86,7.16,7.16,0,0,0-.86-3.92,3,3,0,0,0-2.64-1.28,3.13,3.13,0,0,0-2.76,1.5A7.73,7.73,0,0,0,223.38,61.32Z"/><path class="cls-5" d="M247.67,66a10.27,10.27,0,0,0,2,6.66,6.57,6.57,0,0,0,5.38,2.47,9.17,9.17,0,0,0,3.22-.57,10.69,10.69,0,0,0,3-1.73l.48.35-1.07,2.75a11.32,11.32,0,0,1-3.56,1.64,16.43,16.43,0,0,1-4.43.57q-5.65,0-8.86-3.34T240.6,65.5a11.76,11.76,0,0,1,3.2-8.59,11.25,11.25,0,0,1,8.44-3.27q5,0,7.65,2.77c1.78,1.85,2.66,4.51,2.66,8,0,.41,0,.73,0,1s0,.42,0,.59Zm0-2.4h8.21c0-.17,0-.39,0-.65s0-.43,0-.51a10.26,10.26,0,0,0-1-5,3.06,3.06,0,0,0-2.82-1.69,3.66,3.66,0,0,0-3.3,1.93,10.56,10.56,0,0,0-1.18,5.47Z"/><path class="cls-5" d="M273.68,54.7h1.11l1.8,0c.6,0,1.19-.06,1.77-.11,0,.38-.05.65-.06.82s0,.34,0,.51,0,.29,0,.44,0,.39.06.72c-.3,0-.73,0-1.3,0l-3.29,0v.29q-.09,4.74-.09,7,0,3.64.11,6.95c.07,2.19.17,4.28.32,6.26q-1-.12-1.83-.18c-.56,0-1.12-.06-1.65-.06s-1.12,0-1.69.06-1.19.1-1.84.18c.15-2,.25-4.11.32-6.3s.11-4.48.11-6.87q0-2.25-.09-7v-.29c-.23,0-.46,0-.71,0l-1.09,0-1,0c-.22,0-.4,0-.56,0l.09-.59a3.24,3.24,0,0,0,.05-.62,3.62,3.62,0,0,0-.05-.63c0-.23-.06-.44-.09-.65.44,0,.87.08,1.29.11l1.22,0h.78a16.08,16.08,0,0,1,.68-4.61,17.73,17.73,0,0,1,2.06-4.4,11.68,11.68,0,0,1,3.2-3.53,6.51,6.51,0,0,1,3.73-1.09,9.32,9.32,0,0,1,1.54.13,9.8,9.8,0,0,1,1.66.41c-.19.93-.37,1.91-.54,2.93s-.32,2.09-.48,3.21A10.16,10.16,0,0,0,277,46.41a5.52,5.52,0,0,0-2.09-.44,3,3,0,0,0-2.07.7,2.29,2.29,0,0,0-.79,1.77,11.84,11.84,0,0,0,.66,2.88C273.18,52.72,273.49,53.85,273.68,54.7Z"/><path class="cls-5" d="M282.51,77.5q.19-4.11.28-8.56c.07-3,.1-6.16.1-9.56q0-5.41-.1-9.88t-.28-8.43c.77.12,1.44.21,2,.26s1.09.07,1.61.07a16.07,16.07,0,0,0,1.65-.09c.58-.05,1.24-.13,2-.24-.13,2.73-.23,5.59-.29,8.56s-.09,6.16-.09,9.56c0,3.6,0,6.9.09,9.88s.16,5.79.29,8.43a14.64,14.64,0,0,0-1.71-.25c-.6-.06-1.22-.08-1.87-.08s-1.27,0-1.87.08A17.53,17.53,0,0,0,282.51,77.5Z"/><path class="cls-5" d="M316.34,54.28q-.15,2.91-.22,5.81c0,1.93-.07,3.85-.07,5.76s0,3.88.07,5.82.12,3.89.22,5.83q-.93-.12-1.74-.18c-.55,0-1.06-.06-1.55-.06s-1,0-1.59.06-1.13.1-1.75.18V74.2a10.45,10.45,0,0,1-3.34,2.86,8.82,8.82,0,0,1-4.08.91c-2.5,0-4.31-.7-5.46-2.11s-1.71-3.65-1.71-6.75V66.44c0-1.83,0-3.76-.07-5.77s-.12-4.15-.22-6.39c.54.06,1.11.11,1.71.14s1.24,0,1.91,0,1.34,0,1.93,0,1.15-.08,1.67-.14q-.19,3-.28,5.81c-.07,1.83-.1,3.55-.1,5.14q0,5.4.84,7a3.08,3.08,0,0,0,3,1.63,3.18,3.18,0,0,0,3-1.65c.59-1.11.88-3.07.88-5.9V58.63q0-.75,0-1.86c0-.73-.05-1.56-.09-2.49.54.06,1.1.11,1.67.14s1.2,0,1.86,0,1.26,0,1.83,0S315.82,54.34,316.34,54.28Zm-18.1-7.68a2.89,2.89,0,0,1,.94-2.11,3,3,0,0,1,5.21,2.11,3.06,3.06,0,0,1-.85,2.26,2.94,2.94,0,0,1-2.2.86,3,3,0,0,1-2.21-.9A3,3,0,0,1,298.24,46.6Zm8.85,0a2.92,2.92,0,0,1,.93-2.11,3,3,0,0,1,2.17-.93,3,3,0,0,1,3.05,3,3.1,3.1,0,0,1-.84,2.26,2.93,2.93,0,0,1-2.21.86,3.07,3.07,0,0,1-3.1-3.12Z"/><path class="cls-5" d="M325,78.61l.05-.38a4.58,4.58,0,0,1-2.28-1.44,3.66,3.66,0,0,1-.82-2.4,4.48,4.48,0,0,1,1.26-3A9.91,9.91,0,0,1,326.8,69v-.59A8.34,8.34,0,0,1,322.13,66a6.54,6.54,0,0,1-1.57-4.55,6.88,6.88,0,0,1,2.71-5.68,11.36,11.36,0,0,1,7.27-2.14c.28,0,1.36.06,3.23.2s3.6.2,5.19.2c.65,0,1.33,0,2.06,0s1.49-.06,2.29-.1v2.37l-4-.17-.74,0a5.16,5.16,0,0,1,1.88,2A6.32,6.32,0,0,1,341,61a6.92,6.92,0,0,1-2.87,5.89c-1.92,1.42-4.6,2.12-8,2.12h-.83a2.35,2.35,0,0,0-1.54.74,2.28,2.28,0,0,0-.59,1.59q0,2.2,6.88,2.46h.26c.14,0,.34,0,.59,0q4.43.21,5.7.93a5.68,5.68,0,0,1,2.24,2.32,7.31,7.31,0,0,1,.77,3.42,8.89,8.89,0,0,1-3.69,7.34,15.23,15.23,0,0,1-9.58,2.86,14.4,14.4,0,0,1-7.57-1.68,5.15,5.15,0,0,1-2.72-4.59,5.35,5.35,0,0,1,1.23-3.58A8.35,8.35,0,0,1,325,78.61Zm2.13.29a4.44,4.44,0,0,0-1.84,1.75,5.49,5.49,0,0,0,1,6.57,6.45,6.45,0,0,0,4.48,1.5,8.57,8.57,0,0,0,5.16-1.36,4.35,4.35,0,0,0,1.87-3.74,4.05,4.05,0,0,0-1.22-3.22,6.37,6.37,0,0,0-3.87-1.19Zm0-17.58a8.56,8.56,0,0,0,.87,4.39,3.37,3.37,0,0,0,5.52-.07,10.21,10.21,0,0,0,.85-4.86,7.16,7.16,0,0,0-.86-3.92,3,3,0,0,0-2.64-1.28,3.13,3.13,0,0,0-2.76,1.5A7.73,7.73,0,0,0,327.13,61.32Z"/><path class="cls-5" d="M351.43,66a10.27,10.27,0,0,0,2,6.66,6.57,6.57,0,0,0,5.39,2.47,9.16,9.16,0,0,0,3.21-.57,10.69,10.69,0,0,0,3-1.73l.48.35-1.07,2.75a11.22,11.22,0,0,1-3.56,1.64,16.43,16.43,0,0,1-4.43.57q-5.66,0-8.86-3.34t-3.21-9.25a11.76,11.76,0,0,1,3.2-8.59A11.26,11.26,0,0,1,356,53.64q5,0,7.65,2.77c1.78,1.85,2.66,4.51,2.66,8,0,.41,0,.73,0,1s0,.42,0,.59Zm0-2.4h8.2c0-.17,0-.39,0-.65s0-.43,0-.51a10.26,10.26,0,0,0-1-5,3.06,3.06,0,0,0-2.82-1.69,3.66,3.66,0,0,0-3.3,1.93,10.56,10.56,0,0,0-1.17,5.47Z"/><path class="cls-5" d="M370.23,77.5q.19-4.11.28-8.56c.07-3,.1-6.16.1-9.56q0-5.41-.1-9.88t-.28-8.43c.77.12,1.44.21,2,.26s1.09.07,1.61.07a16.07,16.07,0,0,0,1.65-.09c.58-.05,1.24-.13,2-.24-.12,2.73-.22,5.59-.28,8.56s-.09,6.16-.09,9.56c0,3.6,0,6.9.09,9.88s.16,5.79.28,8.43a14.15,14.15,0,0,0-1.7-.25c-.6-.06-1.22-.08-1.87-.08s-1.27,0-1.87.08A17.13,17.13,0,0,0,370.23,77.5Z"/><path class="cls-4" d="M56.4,61.51c0-1.38,8.19-7.76,8.19-16,0-.73-2.05-7.47-2.05-8.21s.59-1.6.59-2.33A17.69,17.69,0,0,0,62,30.48a7.56,7.56,0,0,1,2.35-1.15c-.5-.89-1.17-1-1.65-1.57a20.41,20.41,0,0,1-.11-2.64A2.09,2.09,0,0,0,61,24.78V23.32a1.06,1.06,0,0,0-1,.24,3.38,3.38,0,0,0-1.14-1.16,1.43,1.43,0,0,0-1,.79c-.53.21-5-.21-5,2.87a2.27,2.27,0,0,0,.87,1.76,7.94,7.94,0,0,0-2.11,3.46,25.87,25.87,0,0,0-1.58,3.54c-.59,2.86-.39,6.34-1.64,9-.58,1.26-2.36,1.6-3.68,2.49a5.16,5.16,0,0,1-2.21.38c-.24-.26-.22-.53-.39-.79-.36-5.14-2.09-11.56-8.68-14.67-1.61-.77-3.56-.38-5.38-.65-.36.32-.32.89-.61,1.05-2.27.47-3.6.58-3.6,2.73,0,.74-1.29,1.17-1.63,1.61a5,5,0,0,0-1,2.5c0,.73.62.54.87.77a11.64,11.64,0,0,0-.85,2.92v1.55c.7,0,1.15-.27,1.88-.27,1,0,2.67,4.36,2.91,5.4.8.73,1.6,1,2.25,1.68s.86,1.85,1.79,2.47c1.69,1.09,3.85,2,5.47,3.61.85.84.7,2.34,1.66,3.12,2.49,2.05,5.84,6.18,9.92,5.3.79.42,1.35,2.83,1.35,3.33,0,2.72-.73,3.55-3,4.79v1.36c.9-.29,1.86-1.16,2.6-1.16.44,0,4.59,2,5.19,2.91h1c.33-.31.33-.89.58-1.17a2.55,2.55,0,0,1,1.06.59c.34,0,.64-.27,1.05-.31V74.08c0-.74-.87-1.21-1.22-1.75a5.75,5.75,0,0,0,.06-1.22c-2.88-1.61-4.67,1-4.67-2.41,0-2.29.78-3.08,2.73-4.7Z"/><path class="cls-6" d="M1.17,122.68V107.33H9.33v.91h-7v6.05H9v.94H2.3v6.52h7v.93Z"/><path class="cls-6" d="M12.9,107.65a.64.64,0,1,1,0-1.28.67.67,0,0,1,.69.67A.66.66,0,0,1,12.9,107.65Zm-.64,15V111h1.15v11.66Z"/><path class="cls-6" d="M25.24,122.68v-6.84c0-2.58-.73-4.28-2.92-4.28s-4.06,2.27-4.06,5.24v5.88H17.13V111H18l.3,2.8c.15,1.48.07.79.42,0a4.39,4.39,0,0,1,4.25-3.07c2.66,0,3.47,2.34,3.47,5v7Z"/><path class="cls-6" d="M44.28,107.33h1.11V117c0,4.1-2.24,6-5.37,6s-5.38-1.84-5.38-6v-9.65h1.15V117c0,3.49,1.85,5,4.26,5s4.23-1.58,4.23-5Z"/><path class="cls-6" d="M57.17,122.68v-6.84c0-2.58-.74-4.28-2.93-4.28s-4.06,2.27-4.06,5.24v5.88H49.05V111h.84l.29,2.8c.15,1.48.08.79.42,0a4.39,4.39,0,0,1,4.25-3.07c2.66,0,3.47,2.34,3.47,5v7Z"/><path class="cls-6" d="M66.41,122.66a4.74,4.74,0,0,1-1.6.29c-1.86,0-2.14-1.65-2.14-3.22v-7.94H61.2V111h1.47v-2.65h1.16V111h2.61v.77H63.83v7.84c0,1.45.12,2.41,1.55,2.41a2.61,2.61,0,0,0,1-.17Z"/><path class="cls-6" d="M77.56,122.12a7.4,7.4,0,0,1-3.37.81c-3.23,0-5.51-2.41-5.51-6.13,0-3.93,2.28-6.12,5.26-6.12a4.12,4.12,0,0,1,4.33,4.3c0,.79-.08,1.33-.37,1.33H70.52c-.47,0-.59,0-.59.94a5.7,5.7,0,0,0,.86,3.1,4.3,4.3,0,0,0,3.62,1.79,7.07,7.07,0,0,0,3.15-.76Zm-.89-6.55c.44,0,.57-.07.57-.64a3.13,3.13,0,0,0-3.3-3.37,3.85,3.85,0,0,0-3.84,3.64c0,.35.05.37.47.37Z"/><path class="cls-6" d="M81,122.68V111h.84l.27,2.14c.07.64,0,.47.29,0a4.23,4.23,0,0,1,3.82-2.46h.64v1h-1c-2.24,0-3.74,2.14-3.74,4.7v6.29Z"/><path class="cls-6" d="M97.75,122.68v-6.84c0-2.58-.74-4.28-2.93-4.28s-4.06,2.27-4.06,5.24v5.88H89.63V111h.84l.29,2.8c.15,1.48.07.79.42,0a4.39,4.39,0,0,1,4.25-3.07c2.66,0,3.47,2.34,3.47,5v7Z"/><path class="cls-6" d="M110.9,122.12a7.33,7.33,0,0,1-3.37.81c-3.22,0-5.51-2.41-5.51-6.13,0-3.93,2.29-6.12,5.27-6.12a4.13,4.13,0,0,1,4.33,4.3c0,.79-.08,1.33-.37,1.33h-7.38c-.47,0-.59,0-.59.94a5.7,5.7,0,0,0,.86,3.1,4.29,4.29,0,0,0,3.62,1.79,7,7,0,0,0,3.14-.76Zm-.88-6.55c.44,0,.56-.07.56-.64a3.12,3.12,0,0,0-3.29-3.37,3.85,3.85,0,0,0-3.84,3.64c0,.35,0,.37.47.37Z"/><path class="cls-6" d="M122.49,122.68v-6.84c0-2.58-.77-4.28-2.88-4.28s-4.11,2.27-4.11,5.24v5.88h-1.15V105.59h1.15v8.16c0,1.45,0,.79.39,0,.79-1.72,2.07-3.07,4.24-3.07,2.68,0,3.49,2.34,3.49,5v7Z"/><path class="cls-6" d="M141.79,122.68v-7.16c0-1.5,0-4-2.36-4s-3.66,2.49-3.66,5.12v6h-1.16v-7.16c0-1.52-.1-4-2.36-4-2.09,0-3.67,2-3.67,5.12v6h-1.15V111h.81l.34,3.15c.08.66.08.46.23,0,.61-2.12,1.92-3.42,3.83-3.42s2.78,1.25,3.05,3.47c.05.46.1.51.25,0,.64-2.07,1.87-3.47,3.89-3.47,2.26,0,3.12,1.52,3.12,4.75v7.25Z"/><path class="cls-6" d="M154.9,122.12a7.33,7.33,0,0,1-3.37.81c-3.22,0-5.51-2.41-5.51-6.13,0-3.93,2.29-6.12,5.27-6.12a4.12,4.12,0,0,1,4.32,4.3c0,.79-.07,1.33-.36,1.33h-7.38c-.47,0-.59,0-.59.94a5.7,5.7,0,0,0,.86,3.1,4.27,4.27,0,0,0,3.61,1.79,7,7,0,0,0,3.15-.76Zm-.88-6.55c.44,0,.56-.07.56-.64a3.12,3.12,0,0,0-3.29-3.37,3.84,3.84,0,0,0-3.84,3.64c0,.35.05.37.47.37Z"/><path class="cls-6" d="M166.66,122.68v-6.84c0-2.58-.74-4.28-2.93-4.28s-4.06,2.27-4.06,5.24v5.88h-1.13V111h.84l.29,2.8c.15,1.48.07.79.42,0a4.39,4.39,0,0,1,4.25-3.07c2.66,0,3.47,2.34,3.47,5v7Z"/><path class="cls-6" d="M185.3,122.68,185,120.1c-.1-.84-.1-.52-.35,0a4.45,4.45,0,0,1-4.15,2.85c-3.27,0-5.17-2.73-5.17-6.1,0-3.66,2.17-6.17,5.27-6.17,1.5,0,2.87.56,4,2.66.24.46.34.91.34,0v-7.7h1.16v17.09Zm-.37-5.88c0-3-1.6-5.26-4.21-5.26s-4.25,2.26-4.25,5.26,1.62,5.32,4.25,5.32S184.93,119.83,184.93,116.8Z"/><path class="cls-6" d="M197.82,122.12a7.33,7.33,0,0,1-3.37.81c-3.23,0-5.51-2.41-5.51-6.13,0-3.93,2.28-6.12,5.26-6.12a4.12,4.12,0,0,1,4.33,4.3c0,.79-.07,1.33-.37,1.33h-7.38c-.47,0-.59,0-.59.94a5.7,5.7,0,0,0,.86,3.1,4.3,4.3,0,0,0,3.62,1.79,7,7,0,0,0,3.15-.76Zm-.89-6.55c.44,0,.57-.07.57-.64a3.13,3.13,0,0,0-3.3-3.37,3.85,3.85,0,0,0-3.84,3.64c0,.35,0,.37.47.37Z"/><path class="cls-6" d="M201.23,122.68V111h.84l.27,2.14c.07.64,0,.47.3,0a4.21,4.21,0,0,1,3.81-2.46h.64v1h-1c-2.24,0-3.74,2.14-3.74,4.7v6.29Z"/><path class="cls-6" d="M222.48,122.68l-2.28-4.75c-.72-1.47-1.43-2.45-2.34-2.45h-2.61v7.2H214.1V107.33h4.1c2,0,4.68.25,4.68,3.37s-2.46,3.94-3.4,4.36a5.57,5.57,0,0,1,1.7,2.33l2.51,5.29Zm-7.23-14.46v6.34H218a3.47,3.47,0,0,0,3.64-3.66c0-2.9-2.56-2.68-3.57-2.68Z"/><path class="cls-6" d="M225.58,116.8c0-3.93,2.46-6.12,5.44-6.12s5.36,2.19,5.36,6.12S234,123,231,123,225.58,120.76,225.58,116.8Zm9.64,0c0-3-1.6-5.26-4.2-5.26s-4.26,2.26-4.26,5.26,1.62,5.32,4.26,5.32S235.22,119.83,235.22,116.8Z"/><path class="cls-6" d="M243.21,122.66a4.73,4.73,0,0,1-1.59.29c-1.87,0-2.14-1.65-2.14-3.22v-7.94H238V111h1.48v-2.65h1.15V111h2.61v.77h-2.61v7.84c0,1.45.12,2.41,1.55,2.41a2.61,2.61,0,0,0,1-.17Z"/><path class="cls-6" d="M254.38,122.68v-6.84c0-2.58-.76-4.28-2.88-4.28s-4.11,2.27-4.11,5.24v5.88h-1.15V105.59h1.15v8.16c0,1.45.05.79.4,0,.79-1.72,2.06-3.07,4.23-3.07,2.68,0,3.49,2.34,3.49,5v7Z"/><path class="cls-6" d="M266.26,122.68l-4.85-5.7c-.29-.37-.88-.91-.88.44v5.26H259.4V105.59h1.13v9.84c0,.86.59.56.81.24l4.45-4.72h1.45L262,116.07l5.76,6.61Z"/><path class="cls-6" d="M269.68,116.8c0-3.93,2.46-6.12,5.41-6.12s5.39,2.19,5.39,6.12-2.42,6.15-5.39,6.15S269.68,120.76,269.68,116.8Zm9.64,0c0-3-1.62-5.26-4.23-5.26s-4.26,2.26-4.26,5.26,1.63,5.32,4.26,5.32S279.32,119.83,279.32,116.8Zm-5.51-8.38a.63.63,0,0,1-.64-.57.6.6,0,0,1,.64-.59.58.58,0,0,1,.61.59A.6.6,0,0,1,273.81,108.42Zm2.66,0a.66.66,0,0,1-.67-.57.61.61,0,0,1,.67-.59.58.58,0,0,1,.59.59A.6.6,0,0,1,276.47,108.42Z"/><path class="cls-6" d="M287.29,122.66a4.84,4.84,0,0,1-1.6.29c-1.87,0-2.14-1.65-2.14-3.22v-7.94h-1.48V111h1.48v-2.65h1.15V111h2.61v.77H284.7v7.84c0,1.45.13,2.41,1.55,2.41a2.7,2.7,0,0,0,1-.17Z"/><path class="cls-6" d="M294.52,122.66a4.84,4.84,0,0,1-1.6.29c-1.87,0-2.14-1.65-2.14-3.22v-7.94H289.3V111h1.48v-2.65h1.15V111h2.61v.77h-2.61v7.84c0,1.45.13,2.41,1.55,2.41a2.7,2.7,0,0,0,1-.17Z"/><path class="cls-6" d="M305.66,122.12a7.33,7.33,0,0,1-3.37.81c-3.22,0-5.51-2.41-5.51-6.13,0-3.93,2.29-6.12,5.26-6.12a4.12,4.12,0,0,1,4.33,4.3c0,.79-.07,1.33-.37,1.33h-7.38c-.46,0-.59,0-.59.94a5.7,5.7,0,0,0,.86,3.1,4.3,4.3,0,0,0,3.62,1.79,7,7,0,0,0,3.15-.76Zm-.89-6.55c.45,0,.57-.07.57-.64a3.13,3.13,0,0,0-3.3-3.37,3.84,3.84,0,0,0-3.83,3.64c0,.35.05.37.46.37Z"/><path class="cls-6" d="M309.08,122.68V111h.83l.27,2.14c.08.64.05.47.3,0a4.22,4.22,0,0,1,3.81-2.46h.64v1h-1c-2.24,0-3.74,2.14-3.74,4.7v6.29Z"/><path class="cls-6" d="M331.85,116.58h-3v-.93h4v5.7a6.52,6.52,0,0,1-4.65,1.6c-3.84,0-7-2.9-7-8s3.5-8,7.41-8a9.49,9.49,0,0,1,4.23.84v1.08a7,7,0,0,0-4-1c-4.08,0-6.37,3.17-6.37,7,0,3.57,1.82,7,5.81,7a5.29,5.29,0,0,0,3.54-1.08Z"/><path class="cls-6" d="M336.1,122.68V111h.84l.27,2.14c.07.64.05.47.3,0a4.21,4.21,0,0,1,3.81-2.46H342v1h-1c-2.24,0-3.74,2.14-3.74,4.7v6.29Z"/><path class="cls-6" d="M353.12,122.68l-.32-2.8c-.1-1-.07-.79-.41,0a4.52,4.52,0,0,1-4.24,3.07c-2.68,0-3.46-2.33-3.46-5v-7h1.13v6.84c0,2.58.74,4.28,2.88,4.28s4.1-2.27,4.1-5.24V111h1.14v11.73Z"/><path class="cls-6" d="M357.57,128V111h.79l.32,2.58c.1.84.12.52.37,0a4.46,4.46,0,0,1,4.16-2.85c3.27,0,5.16,2.73,5.16,6.07,0,3.72-2.19,6.2-5.26,6.2a4.19,4.19,0,0,1-4-2.65c-.25-.47-.37-.91-.37,0V128Zm9.62-11.24c0-3-1.6-5.26-4.25-5.26s-4.21,2.26-4.21,5.26,1.62,5.32,4.21,5.32S367.19,119.83,367.19,116.8Z"/><path class="cls-6" d="M371.15,128V111h.79l.32,2.58c.09.84.12.52.36,0a4.47,4.47,0,0,1,4.16-2.85c3.27,0,5.17,2.73,5.17,6.07,0,3.72-2.19,6.2-5.27,6.2a4.21,4.21,0,0,1-4-2.65c-.24-.47-.37-.91-.37,0V128Zm9.62-11.24c0-3-1.6-5.26-4.26-5.26s-4.21,2.26-4.21,5.26,1.63,5.32,4.21,5.32S380.77,119.83,380.77,116.8Z"/><path class="cls-6" d="M392.84,122.12a7.33,7.33,0,0,1-3.37.81c-3.22,0-5.51-2.41-5.51-6.13,0-3.93,2.29-6.12,5.26-6.12a4.12,4.12,0,0,1,4.33,4.3c0,.79-.07,1.33-.36,1.33h-7.38c-.47,0-.59,0-.59.94a5.61,5.61,0,0,0,.86,3.1,4.27,4.27,0,0,0,3.61,1.79,7,7,0,0,0,3.15-.76Zm-.89-6.55c.45,0,.57-.07.57-.64a3.13,3.13,0,0,0-3.3-3.37,3.84,3.84,0,0,0-3.83,3.64c0,.35.05.37.46.37Z"/></svg>